# xmcd
# 
# Track frame offsets:
#     187
#     27440
#     49187
#     75292
#     94767
#     114092
#     131075
#     151187
#     169917
#     189615
#     207612
#     226330
#     241447
#     258460
#     272752
#     290960
# 
# Disc length: 4097
# 
# Revision: 7
# Processed by: cddbd v1.5.2PL0 Copyright (c) Steve Scherf et al.
# Submitted via: fre:ac v1.0.17
# 
DISCID=e30fff10
DTITLE=Lionel Richie - Back To Front
DYEAR=1992
DGENRE=Vocal
TTITLE0=Do It To Me
TTITLE1=My Destiny
TTITLE2=Love, Oh Love
TTITLE3=All Night Long
TTITLE4=Easy
TTITLE5=Still
TTITLE6=Endless Love
TTITLE7=Running With The Night
TTITLE8=Dancin' On The Ceiling
TTITLE9=Sail On
TTITLE10=Hello
TTITLE11=Truly
TTITLE12=Penny Lover
TTITLE13=Stuck On You
TTITLE14=Say You, Say Me
TTITLE15=Three Times A Lady
EXTD=
EXTT0=
EXTT1=
EXTT2=
EXTT3=
EXTT4=
EXTT5=
EXTT6=
EXTT7=
EXTT8=
EXTT9=
EXTT10=
EXTT11=
EXTT12=
EXTT13=
EXTT14=
EXTT15=
PLAYORDER=
